<svg width="333" height="167" viewBox="0 0 333 167" fill="none" xmlns="http://www.w3.org/2000/svg">
<path d="M0 8C0 3.58172 3.58172 0 8 0H325C329.418 0 333 3.58172 333 8V167H0V8Z" fill="white"/>
<g clip-path="url(#clip0_250_42)">
<path d="M121.171 141.446L121.077 138.407L117.09 138.531L117.313 141.146L117.327 143.46L120.129 144.289L121.171 141.446Z" fill="white"/>
<path d="M126.879 146.283C125.663 145.902 125.369 145.441 124.026 144.476C122.684 143.511 121.168 141.447 121.168 141.447C119.902 141.503 119.514 142.923 119.514 142.923C117.46 142.382 117.313 141.146 117.313 141.146C116.038 141.804 116.218 145.201 116.218 145.201L116.455 146.366C116.455 146.366 117.22 147.098 118.202 147.468L118.953 147.161C119.518 147.759 120.069 148.45 120.73 148.848C121.682 149.425 122.811 149.546 124.795 149.479C126.772 149.409 128.662 148.64 128.662 148.64C128.719 147.448 128.091 146.663 126.875 146.283H126.879Z" fill="#416792"/>
<path d="M113.042 143.37L112.942 140.074L108.623 140.207L108.864 143.043L108.877 145.551L111.916 146.449L113.042 143.37Z" fill="white"/>
<path d="M119.227 148.61C117.908 148.196 117.594 147.698 116.138 146.653C114.682 145.608 113.042 143.37 113.042 143.37C111.673 143.43 111.248 144.97 111.248 144.97C109.021 144.385 108.864 143.046 108.864 143.046C107.481 143.761 107.675 147.441 107.675 147.441L107.932 148.704C107.932 148.704 108.76 149.495 109.826 149.899L110.641 149.565C111.252 150.21 111.85 150.961 112.568 151.395C113.6 152.02 114.822 152.154 116.973 152.077C119.117 152.003 121.164 151.168 121.164 151.168C121.224 149.876 120.546 149.027 119.227 148.613V148.61Z" fill="#416792"/>
<path d="M127.122 76.621L118.299 76.3037L107.615 77.2889C107.615 77.2889 106.706 83.0234 106.78 90.598L107.271 142.555C107.271 142.555 110.968 143.216 114.277 142.555L116.789 115.633L117.447 115.76L116.225 140.628C119.601 141.547 122.791 140.675 122.791 140.675C122.791 140.675 127.122 97.1407 127.379 88.9214C127.613 81.4303 127.122 76.621 127.122 76.621Z" fill="#373764"/>
<path d="M110.46 43.3668C111.058 42.7322 111.586 40.3309 111.459 37.796V32.6895H119.932V37.8762C119.952 39.2421 119.741 42.8558 120.957 44.4589L116.666 48.5535L110.46 43.3668Z" fill="#F8C9A4"/>
<path d="M115.37 34.4529C116.522 37.5723 120.944 38.3471 121.986 37.9163C122.627 37.6525 123.482 36.7908 123.666 33.4577L124.744 33.1037C124.938 33.0402 125.035 32.8198 124.948 32.6328L123.632 29.854C123.619 29.6069 123.612 29.3564 123.582 29.0959C122.811 22.4364 117.614 22.747 117.614 22.747C117.614 22.747 113.002 22.4931 111.716 27.2691C110.33 32.4223 115.37 34.4563 115.37 34.4563V34.4529Z" fill="#F8C9A4"/>
<path d="M129.58 47.7153C128.552 46.1689 122.019 42.8458 122.019 42.8458L120.823 40.3276L117.146 41.7337L110.343 40.5013L109.234 43.3535C109.234 43.3535 102.308 46.4562 100.377 48.9209C99.1415 50.4973 101.205 69.6009 102.695 71.2641C103.196 71.8252 104.225 72.4164 105.524 72.9975V77.573C105.524 77.573 119.648 78.418 128.328 77.1589L128.672 69.5107L133.622 62.8913C132.336 57.7714 130.031 48.3899 129.584 47.7153H129.58Z" fill="#EEEEEF"/>
<path d="M158.239 42.9093L161.552 33.2139L152.638 38.267L108.854 91.0824L114.451 95.7248L158.239 42.9093Z" fill="#373764"/>
<path d="M152.638 38.267L161.552 33.2139L158.239 42.9093L152.638 38.267Z" fill="#EEEEEF"/>
<path d="M161.552 33.2139L158.433 34.9773L160.39 36.5971L161.552 33.2139Z" fill="#373764"/>
<path d="M118.699 72.453L120.025 72.8504C121.004 71.5011 122.791 70.3856 123.278 70.2253C124.143 69.9381 125.93 70.0316 126.484 70.1351C127.039 70.2387 128.371 71.5579 128.612 71.9319C128.852 72.306 128.879 72.5532 128.612 72.6366C128.532 72.66 128.395 72.6133 128.224 72.5298C128.385 72.7034 128.806 73.1977 128.625 73.4549C128.478 73.662 128.224 73.662 127.914 73.5284C127.997 73.7087 128.124 74.0494 128.031 74.213C127.924 74.4001 127.66 74.4769 127.106 74.193C127.082 74.1796 127.055 74.1663 127.029 74.1529C127.126 74.36 127.296 74.8776 126.635 74.8743C126.287 74.8743 125.776 74.547 125.292 74.4234C124.878 74.3166 124.494 74.3433 124.203 74.4301C123.712 74.5771 122.032 76.4006 120.747 76.3839C120.747 76.3839 118.769 76.5141 117.641 76.1701L118.699 72.4596V72.453Z" fill="#F8C9A4"/>
<path d="M137.305 62.8576C137.649 62.5002 138.331 63.0179 138.521 63.1482C138.037 62.7407 137.102 62.0894 137.359 61.6519C137.579 61.2745 138.054 61.3881 138.384 61.5317C137.803 61.151 137.232 60.6867 137.496 60.2759C137.873 59.6881 139.553 60.7235 139.971 61.0541C140.391 61.3881 141.691 62.6572 141.691 62.6572C141.691 62.6572 141.069 61.2278 140.742 60.9907C140.415 60.7569 138.591 59.5646 139.029 59.0302C139.433 58.5359 140.575 59.5011 141.4 59.9754C142.255 60.4663 143.187 62.4 143.187 62.4C143.187 62.4 143.457 62.8175 143.24 63.5222C143.023 64.2269 142.569 65.1487 142.195 65.4894C141.821 65.8334 140.649 66.7986 139.663 66.4412C138.929 66.174 138.725 65.7499 138.585 65.3491C138.444 64.9483 138.314 64.6978 137.873 64.1935C137.342 63.5857 136.998 63.1749 137.305 62.8543V62.8576Z" fill="#F8C9A4"/>
<path d="M118.095 45.9751L116.295 46.1755L118.299 71.7216L119.935 73.2178L120.987 71.4176L118.095 45.9751Z" fill="#373764"/>
<path d="M115.614 43.2398L118.279 43.0562L118.095 45.9751L116.295 46.1755L115.614 43.2398Z" fill="#373764"/>
<path d="M119.685 21.2637C118.121 20.7327 116.037 21.5977 116.037 21.5977C116.037 21.5977 111.368 20.2852 108.536 24.7238C106.927 27.242 106.683 30.0808 108.045 32.078C109.668 34.4593 110.45 35.6148 111.462 37.7924C112.511 35.7484 114.795 33.788 114.795 33.788C113.409 33.297 113.212 31.7173 113.596 31.1829C114.204 30.3346 115.149 30.9558 115.149 30.9558C115.149 30.9558 115.931 28.9954 116.371 28.0101C117.046 26.5139 118.739 24.7338 118.739 24.7338L119.381 24.146C119.898 24.8206 121.271 26.407 123.104 26.908C123.362 23.5983 121.475 21.8682 119.685 21.2604V21.2637Z" fill="#416792"/>
<path d="M108.834 66.3276L120.536 72.0888L117.951 76.9615C117.951 76.9615 104.956 73.7921 102.695 71.2638L108.837 66.3276H108.834Z" fill="#EEEEEF"/>
<path d="M199.586 101.747H171.495V136.935H199.586V101.747Z" fill="#F2D423"/>
<path d="M197.248 104.084H173.833V134.597H197.248V104.084Z" fill="white"/>
<path d="M193.781 112.674H182.94C182.663 112.674 182.439 112.451 182.439 112.173C182.439 111.896 182.663 111.672 182.94 111.672H193.781C194.059 111.672 194.282 111.896 194.282 112.173C194.282 112.451 194.059 112.674 193.781 112.674Z" fill="#DBDCDC"/>
<path d="M193.781 120.402H182.94C182.663 120.402 182.439 120.179 182.439 119.901C182.439 119.624 182.663 119.4 182.94 119.4H193.781C194.059 119.4 194.282 119.624 194.282 119.901C194.282 120.179 194.059 120.402 193.781 120.402Z" fill="#DBDCDC"/>
<path d="M193.781 128.131H182.94C182.663 128.131 182.439 127.907 182.439 127.63C182.439 127.353 182.663 127.129 182.94 127.129H193.781C194.059 127.129 194.282 127.353 194.282 127.63C194.282 127.907 194.059 128.131 193.781 128.131Z" fill="#DBDCDC"/>
<path d="M178.338 113.566C178.208 113.566 178.081 113.516 177.984 113.419L176.945 112.38C176.748 112.183 176.748 111.866 176.945 111.672C177.142 111.475 177.46 111.475 177.653 111.672L178.361 112.38L180.071 110.904C180.282 110.724 180.596 110.747 180.779 110.954C180.96 111.165 180.936 111.479 180.729 111.662L178.669 113.442C178.575 113.523 178.458 113.566 178.341 113.566H178.338Z" fill="#DBDCDC"/>
<path d="M178.338 121.481C178.208 121.481 178.081 121.431 177.984 121.334L176.945 120.295C176.748 120.098 176.748 119.781 176.945 119.587C177.142 119.39 177.46 119.39 177.653 119.587L178.361 120.295L180.071 118.819C180.282 118.639 180.596 118.662 180.779 118.869C180.96 119.08 180.936 119.394 180.729 119.577L178.669 121.358C178.575 121.438 178.458 121.478 178.341 121.478L178.338 121.481Z" fill="#DBDCDC"/>
<path d="M178.338 129.397C178.208 129.397 178.081 129.347 177.984 129.25L176.945 128.211C176.748 128.014 176.748 127.697 176.945 127.503C177.142 127.306 177.46 127.306 177.653 127.503L178.361 128.211L180.071 126.735C180.282 126.554 180.596 126.578 180.779 126.785C180.96 126.995 180.936 127.309 180.729 127.493L178.669 129.273C178.575 129.353 178.458 129.393 178.341 129.393L178.338 129.397Z" fill="#DBDCDC"/>
<path d="M188.879 100.674C188.879 98.8308 187.386 97.3379 185.542 97.3379C183.699 97.3379 182.206 98.8308 182.206 100.674H177.296V104.458H193.795V100.674H188.885H188.879Z" fill="#E5E5E6"/>
<path d="M248.083 75.7261H218.202L213.192 97.1041H243.611L248.327 94.3655L248.083 75.7261Z" fill="#E5E5E6"/>
<path d="M218.202 75.7261L217.153 79.9275H247.138L248.083 75.7261H218.202Z" fill="#F2D423"/>
<path d="M248.083 75.7261L243.611 97.1041L248.327 94.3655L248.083 75.7261Z" fill="#DBDCDC"/>
<path d="M222.049 77.6266C222.013 77.6266 221.973 77.6233 221.932 77.6133C221.662 77.5498 221.495 77.2793 221.558 77.0121L222.437 73.2816C222.5 73.011 222.771 72.844 223.038 72.9075C223.308 72.971 223.475 73.2415 223.412 73.5087L222.534 77.2392C222.48 77.4697 222.273 77.6266 222.046 77.6266H222.049Z" fill="#DBDCDC"/>
<path d="M243.327 77.6265C243.29 77.6265 243.257 77.6232 243.22 77.6165C242.95 77.5564 242.779 77.2892 242.836 77.022L243.648 73.2915C243.708 73.0209 243.975 72.8506 244.242 72.9074C244.513 72.9675 244.683 73.2347 244.626 73.5019L243.815 77.2324C243.765 77.4662 243.557 77.6265 243.327 77.6265Z" fill="#DBDCDC"/>
<path d="M220.677 83.9653L220.132 86.4268H223.429L223.913 83.9653H220.677Z" fill="white"/>
<path d="M229.744 83.9653L229.2 86.4268H232.496L232.98 83.9653H229.744Z" fill="white"/>
<path d="M238.812 83.9653L238.267 86.4268H241.564L242.048 83.9653H238.812Z" fill="white"/>
<path d="M219.24 90.1377L218.696 92.5991H221.992L222.477 90.1377H219.24Z" fill="white"/>
<path d="M228.308 90.1377L227.764 92.5991H231.06L231.544 90.1377H228.308Z" fill="white"/>
<path d="M237.372 90.1377L236.831 92.5991H240.128L240.612 90.1377H237.372Z" fill="white"/>
<path d="M175.753 55.978H170.169V69.8482H175.753V55.978Z" fill="#F2D423"/>
<path d="M183.438 58.6333H177.854V69.8483H183.438V58.6333Z" fill="#F2D423"/>
<path d="M191.126 53.1226H185.542V69.8482H191.126V53.1226Z" fill="#F2D423"/>
<path d="M198.811 47.3682H193.227V69.8483H198.811V47.3682Z" fill="#F2D423"/>
<path d="M180.646 52.4514C180.593 52.4514 180.536 52.4414 180.482 52.4247L172.797 49.7729C172.537 49.6827 172.397 49.3988 172.487 49.135C172.577 48.8745 172.861 48.7342 173.125 48.8244L180.566 51.3927L188.04 46.0357L195.718 40.2879C195.939 40.1209 196.253 40.1676 196.42 40.3881C196.587 40.6085 196.54 40.9224 196.32 41.0894L188.635 46.8439L180.94 52.3579C180.853 52.418 180.753 52.4514 180.649 52.4514H180.646Z" fill="#DBDCDC"/>
<path d="M172.961 51.2355C171.892 51.2355 171.024 50.3671 171.024 49.2984C171.024 48.2297 171.892 47.3613 172.961 47.3613C174.03 47.3613 174.898 48.2297 174.898 49.2984C174.898 50.3671 174.03 51.2355 172.961 51.2355Z" fill="#DBDCDC"/>
<path d="M172.961 48.3599C172.443 48.3599 172.026 48.7807 172.026 49.295C172.026 49.8093 172.447 50.2301 172.961 50.2301C173.475 50.2301 173.896 49.8093 173.896 49.295C173.896 48.7807 173.475 48.3599 172.961 48.3599Z" fill="white"/>
<path d="M180.646 53.8908C179.577 53.8908 178.709 53.0224 178.709 51.9537C178.709 50.8849 179.577 50.0166 180.646 50.0166C181.715 50.0166 182.583 50.8849 182.583 51.9537C182.583 53.0224 181.715 53.8908 180.646 53.8908Z" fill="#DBDCDC"/>
<path d="M180.646 51.0151C180.128 51.0151 179.711 51.436 179.711 51.9503C179.711 52.4646 180.132 52.8854 180.646 52.8854C181.16 52.8854 181.581 52.4646 181.581 51.9503C181.581 51.436 181.16 51.0151 180.646 51.0151Z" fill="white"/>
<path d="M188.334 48.38C187.265 48.38 186.397 47.5117 186.397 46.4429C186.397 45.3742 187.265 44.5059 188.334 44.5059C189.403 44.5059 190.271 45.3742 190.271 46.4429C190.271 47.5117 189.403 48.38 188.334 48.38Z" fill="#DBDCDC"/>
<path d="M188.334 45.5044C187.816 45.5044 187.399 45.9252 187.399 46.4395C187.399 46.9539 187.82 47.3747 188.334 47.3747C188.848 47.3747 189.269 46.9539 189.269 46.4395C189.269 45.9252 188.848 45.5044 188.334 45.5044Z" fill="white"/>
<path d="M196.019 42.6256C194.95 42.6256 194.082 41.7573 194.082 40.6885C194.082 39.6198 194.95 38.7515 196.019 38.7515C197.088 38.7515 197.956 39.6198 197.956 40.6885C197.956 41.7573 197.088 42.6256 196.019 42.6256Z" fill="#DBDCDC"/>
<path d="M196.019 39.75C195.501 39.75 195.084 40.1708 195.084 40.6851C195.084 41.1995 195.505 41.6203 196.019 41.6203C196.533 41.6203 196.954 41.1995 196.954 40.6851C196.954 40.1708 196.533 39.75 196.019 39.75Z" fill="white"/>
</g>
<defs>
<clipPath id="clip0_250_42">
<rect width="148.327" height="131" fill="white" transform="translate(100 21.0938)"/>
</clipPath>
</defs>
</svg>
