<svg width="333" height="167" viewBox="0 0 333 167" fill="none" xmlns="http://www.w3.org/2000/svg">
<path d="M0 8C0 3.58172 3.58172 0 8 0H325C329.418 0 333 3.58172 333 8V167H0V8Z" fill="white"/>
<g clip-path="url(#clip0_9_1649)">
<path d="M201.119 143.803C201.119 143.803 201.869 149.333 201.299 149.988C200.729 150.642 198.622 153.132 194.365 155.321C192.638 156.209 193.629 158.452 193.629 158.452C193.629 158.452 197.364 160.077 201.431 157.974C204.223 156.528 206.595 155.829 206.744 155.49C207.059 154.768 207.596 152.027 206.249 149.659L205.669 144L201.119 143.807V143.803Z" fill="#F8C9A4"/>
<path d="M206.662 150.537C206.123 151.124 204.817 152.328 202.615 153.139C202.649 152.786 202.673 152.345 202.615 152.037C202.517 151.504 200.62 151.185 200.244 151.127C199.141 152.223 197.248 153.841 194.368 155.324C192.641 156.213 193.632 158.455 193.632 158.455C193.632 158.455 197.367 160.08 201.435 157.977C204.227 156.532 206.598 155.833 206.747 155.493C207.025 154.859 207.47 152.671 206.666 150.544L206.662 150.537Z" fill="#C8C9CA"/>
<path d="M196.2 156.857C195.04 156.857 194.283 156.593 194.239 156.576C194.019 156.498 193.903 156.253 193.981 156.033C194.059 155.812 194.304 155.697 194.521 155.775C194.521 155.775 195.861 156.233 197.645 155.853C199.481 155.459 201.652 153.987 201.672 153.97C201.865 153.838 202.13 153.889 202.262 154.082C202.395 154.276 202.344 154.54 202.15 154.672C202.055 154.737 199.816 156.257 197.822 156.684C197.228 156.81 196.678 156.857 196.197 156.857H196.2Z" fill="white"/>
<path d="M209.648 144.651C209.648 144.651 210.306 150.374 209.733 151.029C209.163 151.684 207.056 154.174 202.799 156.362C201.072 157.251 202.062 159.493 202.062 159.493C202.062 159.493 205.797 161.118 209.865 159.015C212.657 157.57 215.028 156.871 215.178 156.532C215.493 155.809 216.029 153.068 214.682 150.7L214.197 144.848L209.648 144.655V144.651Z" fill="#F8C9A4"/>
<path d="M215.096 151.579C214.557 152.166 213.251 153.37 211.049 154.181C211.083 153.828 211.107 153.387 211.049 153.078C210.951 152.545 209.054 152.227 208.678 152.169C207.575 153.265 205.682 154.883 202.802 156.365C201.075 157.254 202.066 159.497 202.066 159.497C202.066 159.497 205.801 161.122 209.868 159.018C212.66 157.573 215.032 156.874 215.181 156.535C215.459 155.901 215.904 153.712 215.1 151.585L215.096 151.579Z" fill="#C8C9CA"/>
<path d="M204.634 157.902C203.473 157.902 202.717 157.638 202.673 157.621C202.452 157.543 202.337 157.298 202.415 157.078C202.493 156.857 202.737 156.742 202.954 156.82C202.954 156.82 204.298 157.278 206.079 156.898C207.911 156.508 210.085 155.032 210.106 155.019C210.299 154.886 210.564 154.937 210.696 155.13C210.828 155.324 210.777 155.588 210.584 155.721C210.489 155.785 208.25 157.305 206.255 157.733C205.662 157.858 205.112 157.906 204.63 157.906L204.634 157.902Z" fill="white"/>
<path d="M215.88 80.7846H195.359L194.948 87.9732L200.451 147.494C200.451 147.494 203.691 148.383 207.12 147.446L205.879 122.186L206.269 122.132L209.098 149.4C212.46 150.072 215.876 149.4 215.876 149.4L215.819 91.0638L215.876 80.7778L215.88 80.7846Z" fill="#4887FA"/>
<path d="M212.128 48.3361C211.524 47.6881 211.184 45.578 211.286 42.3891L211.178 37.487L202.91 37.4497L202.876 42.7182C202.853 44.1057 202.371 47.4778 201.703 49.2487L201.143 52.6276L205.98 56.0268L212.372 53.0957L212.131 48.3395L212.128 48.3361Z" fill="#F8C9A4"/>
<path d="M211.181 87.3121C205.041 88.0483 196.044 87.1561 196.044 87.1561L198.68 57.4008L200.81 49.4082C200.81 49.4082 206.71 50.7143 212.128 49.6694L213.176 58.8935L211.184 87.3121H211.181Z" fill="white"/>
<path d="M207.195 39.2509C206.004 42.4127 201.513 43.176 200.454 42.7316C199.803 42.4602 198.941 41.5781 198.775 38.1958L197.683 37.8295C197.486 37.7616 197.391 37.5377 197.479 37.3511L198.829 34.5354C198.846 34.2843 198.853 34.0299 198.884 33.7653C199.705 27.0041 204.983 27.3502 204.983 27.3502C204.983 27.3502 209.672 27.1195 210.947 31.9775C212.325 37.2188 207.192 39.2543 207.192 39.2543L207.195 39.2509Z" fill="#F8C9A4"/>
<path d="M208.474 38.1859C209.251 37.5074 209.325 36.3811 209.017 35.9435C208.406 35.0784 207.439 35.706 207.439 35.706C206.676 36.0418 205.743 34.8138 205.122 32.8563C204.413 30.6241 203.86 29.6131 202.92 28.938C202.205 28.4258 201.126 28.8023 201.126 28.8023C200.858 29.0432 200.6 29.3282 200.356 29.6538C199.263 28.3342 201.228 26.5938 203.046 26.2071C204.651 25.8645 206.588 26.1935 206.588 26.1935C206.588 26.1935 211.229 24.8298 214.01 29.6538C216.673 34.271 215.008 37.1139 213.82 38.3487C213.82 38.3487 211.741 40.5843 211.283 42.3857C211.283 42.3857 210.072 42.5689 209.604 42.0567C209.149 41.558 209.39 40.1501 208.474 38.1859Z" fill="#416792"/>
<path d="M179.933 66.5163L171.384 55.657L177.338 51.2808L185.263 62.8355L179.933 66.5163Z" fill="#DBDCDC"/>
<path d="M193.557 53.2552C192.753 54.5239 188.601 72.5786 188.601 72.5786L193.259 72.8975C192.468 79.3092 190.728 94.0088 190.728 94.0088C190.728 94.0088 195.512 94.0834 196.407 87.5835C197.303 81.0835 202.12 47.8374 202.12 47.8374C202.12 47.8374 194.599 51.5996 193.554 53.2518L193.557 53.2552Z" fill="#373764"/>
<path d="M212.087 97.3878L204.898 102.683L177.684 65.6717L184.876 60.3828L212.087 97.3878Z" fill="#373764"/>
<path d="M204.61 79.8925L203.263 80.2962C202.269 78.9256 200.454 77.7925 199.959 77.6297C199.08 77.338 197.265 77.4329 196.702 77.5381C196.139 77.6433 194.785 78.9833 194.541 79.3633C194.297 79.7432 194.27 79.9942 194.541 80.0791C194.623 80.1028 194.762 80.0553 194.935 79.9705C194.772 80.1469 194.344 80.649 194.528 80.9102C194.677 81.1205 194.935 81.1205 195.25 80.9848C195.165 81.168 195.036 81.5141 195.131 81.6803C195.24 81.8703 195.508 81.9483 196.071 81.6599C196.095 81.6464 196.122 81.6328 196.149 81.6192C196.051 81.8296 195.878 82.3554 196.549 82.352C196.902 82.352 197.421 82.0195 197.913 81.894C198.334 81.7855 198.724 81.8126 199.019 81.9008C199.518 82.0501 201.224 83.9024 202.53 83.8854C202.53 83.8854 204.539 84.0177 205.685 83.6683L204.61 79.8993V79.8925Z" fill="#F8C9A4"/>
<path d="M220.867 78.3932C222.38 76.6155 224.473 56.2268 223.221 54.5442C221.26 51.9116 211.792 47.627 211.792 47.627C210.211 56.9223 209.163 67.5509 208.823 76.1304L202.744 79.2752L205.37 84.4758C205.37 84.4758 206.761 84.1196 208.718 83.5463C208.8 88.021 209.197 91.1963 209.96 92.1733C212.732 95.7218 220.867 94.7652 220.867 94.7652L219.957 79.1632C220.341 78.902 220.653 78.6442 220.867 78.3932Z" fill="#373764"/>
<path d="M165.084 61.4546C176.506 61.4546 185.765 52.1957 185.765 40.7742C185.765 29.3527 176.506 20.0938 165.084 20.0938C153.663 20.0938 144.404 29.3527 144.404 40.7742C144.404 52.1957 153.663 61.4546 165.084 61.4546Z" fill="#E5E5E6"/>
<path d="M163.466 58.405C153.747 57.5128 146.565 48.879 147.457 39.1562C148.349 29.4368 156.983 22.255 166.706 23.1472C176.425 24.0394 183.607 32.6732 182.715 42.396C181.823 52.1154 173.189 59.2972 163.466 58.405Z" fill="white"/>
<path d="M185.711 70.1462C185.361 69.7832 184.669 70.309 184.476 70.4413C184.968 70.0275 185.918 69.3659 185.656 68.9215C185.433 68.5382 184.951 68.6535 184.615 68.7994C185.205 68.4126 185.785 67.9411 185.517 67.5238C185.134 66.9267 183.428 67.9784 183.004 68.3143C182.576 68.6535 181.256 69.9426 181.256 69.9426C181.256 69.9426 181.887 68.4907 182.22 68.2498C182.552 68.0123 184.405 66.8012 183.96 66.2584C183.55 65.7563 182.39 66.7368 181.552 67.2185C180.683 67.7172 179.737 69.6814 179.737 69.6814C179.737 69.6814 179.462 70.1055 179.682 70.8213C179.903 71.5371 180.364 72.4734 180.744 72.8194C181.124 73.1689 182.315 74.1493 183.316 73.7863C184.062 73.5149 184.269 73.0841 184.411 72.677C184.551 72.2699 184.686 72.0154 185.134 71.5032C185.673 70.8857 186.023 70.4685 185.711 70.1428V70.1462Z" fill="#F8C9A4"/>
<path d="M177.118 90.6362H154.208V121.898H177.118V90.6362Z" fill="white"/>
<path d="M172.316 102.825C173.245 99.1523 171.02 95.422 167.347 94.4933C163.674 93.5646 159.944 95.7892 159.016 99.462C158.087 103.135 160.311 106.865 163.984 107.794C167.657 108.723 171.387 106.498 172.316 102.825Z" fill="#F2D423"/>
<path d="M165.661 101.889C167.134 101.889 168.328 100.695 168.328 99.2226C168.328 97.75 167.134 96.5562 165.661 96.5562C164.189 96.5562 162.995 97.75 162.995 99.2226C162.995 100.695 164.189 101.889 165.661 101.889Z" fill="white"/>
<path d="M172.175 112.239H161.434C161.153 112.239 160.925 112.012 160.925 111.731C160.925 111.449 161.153 111.222 161.434 111.222H172.175C172.456 111.222 172.684 111.449 172.684 111.731C172.684 112.012 172.456 112.239 172.175 112.239Z" fill="#DBDCDC"/>
<path d="M172.175 114.964H161.434C161.153 114.964 160.925 114.736 160.925 114.455C160.925 114.173 161.153 113.946 161.434 113.946H172.175C172.456 113.946 172.684 114.173 172.684 114.455C172.684 114.736 172.456 114.964 172.175 114.964Z" fill="#DBDCDC"/>
<path d="M172.175 117.691H161.434C161.153 117.691 160.925 117.464 160.925 117.182C160.925 116.901 161.153 116.673 161.434 116.673H172.175C172.456 116.673 172.684 116.901 172.684 117.182C172.684 117.464 172.456 117.691 172.175 117.691Z" fill="#DBDCDC"/>
<path d="M159.908 111.731C159.908 112.036 159.66 112.284 159.355 112.284C159.049 112.284 158.802 112.036 158.802 111.731C158.802 111.425 159.049 111.178 159.355 111.178C159.66 111.178 159.908 111.425 159.908 111.731Z" fill="#DBDCDC"/>
<path d="M159.908 114.455C159.908 114.76 159.66 115.008 159.355 115.008C159.049 115.008 158.802 114.76 158.802 114.455C158.802 114.15 159.049 113.902 159.355 113.902C159.66 113.902 159.908 114.15 159.908 114.455Z" fill="#DBDCDC"/>
<path d="M159.908 117.182C159.908 117.488 159.66 117.735 159.355 117.735C159.049 117.735 158.802 117.488 158.802 117.182C158.802 116.877 159.049 116.629 159.355 116.629C159.66 116.629 159.908 116.877 159.908 117.182Z" fill="#DBDCDC"/>
<path d="M165.661 101.889C163.327 101.889 161.438 103.782 161.438 106.113V106.601C162.601 107.514 164.067 108.06 165.661 108.06C167.256 108.06 168.721 107.514 169.885 106.601V106.113C169.885 103.779 167.992 101.889 165.661 101.889Z" fill="white"/>
<path d="M177.118 122.407H154.208C153.927 122.407 153.699 122.179 153.699 121.898V90.6363C153.699 90.3547 153.927 90.1274 154.208 90.1274H177.118C177.399 90.1274 177.626 90.3547 177.626 90.6363V121.898C177.626 122.179 177.399 122.407 177.118 122.407ZM154.717 121.389H176.609V91.1452H154.717V121.389Z" fill="#DBDCDC"/>
<path d="M136.785 52.2983H110.673V87.9327H136.785V52.2983Z" fill="white"/>
<path d="M129.254 69.7969C132.306 66.7445 132.306 61.7955 129.254 58.7431C126.201 55.6907 121.252 55.6907 118.2 58.7431C115.148 61.7955 115.148 66.7445 118.2 69.7969C121.252 72.8494 126.201 72.8494 129.254 69.7969Z" fill="#F2D423"/>
<path d="M126.703 62.7248C127.052 61.0828 126.004 59.4687 124.361 59.1196C122.719 58.7706 121.105 59.8188 120.756 61.4609C120.407 63.1029 121.455 64.717 123.097 65.0661C124.74 65.4151 126.354 64.3669 126.703 62.7248Z" fill="white"/>
<path d="M131.153 76.8532H118.913C118.632 76.8532 118.404 76.6259 118.404 76.3443C118.404 76.0627 118.632 75.8354 118.913 75.8354H131.153C131.435 75.8354 131.662 76.0627 131.662 76.3443C131.662 76.6259 131.435 76.8532 131.153 76.8532Z" fill="#DBDCDC"/>
<path d="M131.153 79.9606H118.913C118.632 79.9606 118.404 79.7333 118.404 79.4517C118.404 79.1702 118.632 78.9429 118.913 78.9429H131.153C131.435 78.9429 131.662 79.1702 131.662 79.4517C131.662 79.7333 131.435 79.9606 131.153 79.9606Z" fill="#DBDCDC"/>
<path d="M131.153 83.068H118.913C118.632 83.068 118.404 82.8407 118.404 82.5592C118.404 82.2776 118.632 82.0503 118.913 82.0503H131.153C131.435 82.0503 131.662 82.2776 131.662 82.5592C131.662 82.8407 131.435 83.068 131.153 83.068Z" fill="#DBDCDC"/>
<path d="M117.17 76.3444C117.17 76.6904 116.888 76.972 116.542 76.972C116.196 76.972 115.914 76.6904 115.914 76.3444C115.914 75.9984 116.196 75.7168 116.542 75.7168C116.888 75.7168 117.17 75.9984 117.17 76.3444Z" fill="#DBDCDC"/>
<path d="M117.17 79.4518C117.17 79.7979 116.888 80.0794 116.542 80.0794C116.196 80.0794 115.914 79.7979 115.914 79.4518C115.914 79.1058 116.196 78.8242 116.542 78.8242C116.888 78.8242 117.17 79.1058 117.17 79.4518Z" fill="#DBDCDC"/>
<path d="M117.17 82.5592C117.17 82.9053 116.888 83.1868 116.542 83.1868C116.196 83.1868 115.914 82.9053 115.914 82.5592C115.914 82.2132 116.196 81.9316 116.542 81.9316C116.888 81.9316 117.17 82.2132 117.17 82.5592Z" fill="#DBDCDC"/>
<path d="M123.727 65.1289C121.068 65.1289 118.91 67.2865 118.91 69.9462V70.4924C120.236 71.5339 121.909 72.1547 123.727 72.1547C125.546 72.1547 127.215 71.5339 128.544 70.4924V69.9462C128.544 67.2865 126.387 65.1289 123.727 65.1289Z" fill="white"/>
<path d="M128.544 88.4417H110.673C110.391 88.4417 110.164 88.2144 110.164 87.9328V52.2984C110.164 52.0168 110.391 51.7896 110.673 51.7896H136.785C137.066 51.7896 137.294 52.0168 137.294 52.2984V79.4517C137.294 79.7332 137.066 79.9605 136.785 79.9605C136.503 79.9605 136.276 79.7332 136.276 79.4517V52.8073H111.182V87.4239H128.544C128.826 87.4239 129.053 87.6512 129.053 87.9328C129.053 88.2144 128.826 88.4417 128.544 88.4417Z" fill="#DBDCDC"/>
<path d="M136.886 94.701C140.624 94.701 143.654 91.6708 143.654 87.933C143.654 84.1952 140.624 81.165 136.886 81.165C133.149 81.165 130.118 84.1952 130.118 87.933C130.118 91.6708 133.149 94.701 136.886 94.701Z" fill="#F2D423"/>
<path d="M135.679 91.1319C135.506 91.1319 135.329 91.0641 135.2 90.9318L132.751 88.4824C132.486 88.2178 132.486 87.787 132.751 87.5223C133.016 87.2577 133.446 87.2577 133.711 87.5223L135.716 89.5273L140.099 85.7379C140.384 85.4937 140.811 85.5242 141.056 85.8092C141.3 86.0941 141.269 86.5216 140.984 86.7658L136.123 90.9657C135.994 91.0776 135.838 91.1319 135.679 91.1319Z" fill="white"/>
</g>
<defs>
<clipPath id="clip0_9_1649">
<rect width="113.44" height="140" fill="white" transform="translate(110.164 20.0938)"/>
</clipPath>
</defs>
</svg>
