<svg width="333" height="167" viewBox="0 0 333 167" fill="none" xmlns="http://www.w3.org/2000/svg">
<path d="M0 8C0 3.58172 3.58172 0 8 0H325C329.418 0 333 3.58172 333 8V167H0V8Z" fill="white"/>
<g clip-path="url(#clip0_250_41)">
<path d="M139.944 39.7431L132.743 34.9882C135.22 35.5007 136.124 28.7705 136.124 28.7705L138.979 30.4098L141.15 31.7504C141.15 31.7504 140.026 36.4035 142.353 36.8651L139.944 39.7431Z" fill="#F8C9A4"/>
<path d="M140.131 63.2648L138.552 104.43C138.552 104.43 136.08 105.983 132.735 104.679L133.109 72.7966L132.461 73.1157L130.82 107.988C130.82 107.988 128.131 108.995 124.947 107.915C124.947 107.915 124.423 72.8594 124.87 65.0517L127.22 60.1831L137.814 59.7979L140.13 63.2648H140.131Z" fill="#416792"/>
<path d="M133.7 34.3228L135.002 32.9482L139.426 35.1916L140.947 34.4467L141.672 36.0792L139.832 49.7092L133.294 48.6622L133.7 34.3228Z" fill="white"/>
<path d="M138.462 37.6745L138.168 35.3853L139.987 35.5855L139.557 37.7288L139.881 46.2594L138.144 49.8197L136.004 46.1407L138.462 37.6745Z" fill="#373764"/>
<path d="M146.948 40.6813C146.586 40.0348 143.36 37.2636 141.938 35.9128C141.401 35.2205 140.947 34.4467 140.947 34.4467C140.646 41.1141 138.559 47.2656 138.559 47.2656C137.221 43.5187 135.002 32.9482 135.002 32.9482C135.002 32.9482 134.307 33.5693 133.607 34.0224C130.518 35.4903 126.395 36.4321 125.501 37.2365L125.124 46.5308C124.69 50.9718 123.849 58.6353 123.568 59.7977C123.257 61.0823 121.707 67.8702 121.707 67.8702C121.707 67.8702 127.784 69.9744 131.098 68.3436C133.457 67.1812 135.501 62.7504 135.501 62.7504C135.501 62.7504 136.529 67.6105 137.949 68.6423C139.014 69.4161 140.825 69.4246 141.401 69.4161C141.401 69.4161 141.84 63.324 142.353 59.7994C142.78 56.8738 143.477 53.1133 143.89 50.965L146.948 40.6847V40.6813Z" fill="#373764"/>
<path d="M137.571 30.9001C138.156 31.7638 139.638 33.157 140.757 33.2215C141.529 33.2656 142.856 31.9437 143.315 31.102C143.715 30.3689 144.405 27.8896 144.529 27.4196C144.653 26.9495 146.001 22.5747 141.921 21.0559C137.726 19.4947 136.038 22.5577 135.679 23.9611C135.339 25.2848 135.39 26.9139 136.837 29.6188C136.837 29.6188 137.163 30.2959 137.573 30.9001H137.571Z" fill="#F8C9A4"/>
<path d="M137.983 20.4044C139.072 19.9615 141.318 20.0973 143.003 20.5911C144.324 20.978 144.577 22.0437 144.574 22.8141C145.138 23.6287 145.447 24.5688 145.243 25.4275C144.949 26.6612 144.482 27.5826 144.482 27.5826C144.754 25.7295 144.696 24.243 143.732 23.6813C143.732 23.6813 142.547 22.972 141.427 22.9991C141.427 22.9991 140.125 22.8701 139.331 24.4704C138.562 26.0197 137.906 26.6001 137.308 26.8071L136.738 28.7264L135.941 29.8447C135.941 29.8447 135.281 28.3785 134.989 25.8364C134.693 23.2655 136.136 20.8507 137.981 20.4044H137.983Z" fill="#416792"/>
<path d="M136.74 28.7264C135.575 28.1291 135.852 26.8275 136.274 26.5492C136.869 26.1572 137.323 26.7851 137.323 26.7851L137.665 27.1126L136.991 28.869L136.742 28.7264H136.74Z" fill="#F8C9A4"/>
<path d="M121.409 61.2693C121.409 61.2693 116.595 56.2072 116.401 53.0034C116.207 49.7995 125.501 37.2368 125.501 37.2368L128.112 42.808L126.679 46.5311C126.679 46.5311 121.506 51.566 121.508 52.2312C121.51 52.9253 123.514 57.9314 123.514 57.9314L121.409 61.2693Z" fill="#373764"/>
<path d="M126.822 61.4796C126.671 61.1877 126.368 60.6447 126.123 60.2714C125.88 59.898 124.937 58.9053 124.937 58.9053C124.418 58.5167 124.187 58.3097 123.516 57.9295C122.795 57.5223 120.983 58.5337 120.971 59.2379C120.952 60.3698 121.249 60.9043 121.411 61.2675C121.552 61.5865 122.404 62.3943 122.606 62.5911C122.785 62.7642 123.291 63.1766 123.781 63.4837C124.048 63.6517 124.316 63.8859 124.469 63.7247C124.632 63.5516 124.493 63.2801 124.493 63.2801C124.797 63.6144 125.148 64.0726 125.44 63.8197C125.732 63.5652 125.46 63.1545 125.295 62.9118C125.596 63.2495 125.887 63.7366 126.224 63.5465C126.56 63.3565 126.327 62.9611 126.174 62.7099C126.023 62.4588 124.345 60.1169 124.345 60.1169C124.345 60.1169 125.105 60.5395 125.367 60.8008C125.627 61.0622 125.756 61.2166 126.008 61.6357C126.259 62.0566 126.603 62.62 126.931 62.4028C127.259 62.1855 126.972 61.7698 126.82 61.4779L126.822 61.4796Z" fill="#F8C9A4"/>
<path d="M111.405 84.9824V124.573C111.405 124.573 110.987 124.956 110.344 124.956C109.701 124.956 109.283 124.573 109.283 124.573V84.9824H111.405Z" fill="#DFE0E0"/>
<path d="M172.552 117.188V156.778C172.552 156.778 172.134 157.161 171.491 157.161C170.849 157.161 170.43 156.778 170.43 156.778V117.188H172.552Z" fill="#DFE0E0"/>
<path d="M236.467 84.5991V124.189C236.467 124.189 236.049 124.573 235.406 124.573C234.764 124.573 234.345 124.189 234.345 124.189V84.5991H236.467Z" fill="#DFE0E0"/>
<path d="M237.985 83.9661L172.239 118.202C171.807 118.426 171.294 118.425 170.866 118.196L108.17 84.8061C107.751 84.5838 107.755 83.9847 108.175 83.7658L173.966 49.5498C174.397 49.3258 174.912 49.3275 175.34 49.5566L237.992 82.9241C238.41 83.1464 238.407 83.7455 237.987 83.9644L237.985 83.9661Z" fill="#F2F2F2"/>
<path d="M175.002 55.5654L141.672 73.3174L174.225 92.0774L207.388 74.2542L175.002 55.5654Z" fill="white"/>
<path d="M175.366 76.2638C178.915 76.2638 181.792 75.3255 181.792 74.168C181.792 73.0106 178.915 72.0723 175.366 72.0723C171.817 72.0723 168.94 73.0106 168.94 74.168C168.94 75.3255 171.817 76.2638 175.366 76.2638Z" fill="#EEEEEF"/>
<path d="M174.934 67.2086C176.113 67.2086 177.069 66.2543 177.069 65.0772C177.069 63.9001 176.113 62.9458 174.934 62.9458C173.755 62.9458 172.799 63.9001 172.799 65.0772C172.799 66.2543 173.755 67.2086 174.934 67.2086Z" fill="#DBDCDC"/>
<path d="M170.719 59.0327V64.217C170.719 64.9806 172.606 65.5983 174.934 65.5983C177.261 65.5983 179.148 64.9789 179.148 64.217V59.0327H170.719Z" fill="#E5E5E6"/>
<path d="M174.935 61.1455C177.674 61.1455 179.894 61.1455 179.894 59.3399V57.424C179.894 55.6337 180.697 53.9249 182.108 52.8185C184.867 50.6531 186.62 47.2677 186.548 43.4767C186.431 37.3048 181.118 32.2563 174.935 32.1104C168.753 32.2563 163.44 37.3048 163.323 43.4767C163.251 47.2677 165.004 50.6531 167.763 52.8185C169.174 53.9249 169.977 55.6337 169.977 57.424V59.3399C169.977 61.1455 172.197 61.1455 174.935 61.1455Z" fill="#F2D423"/>
<path d="M174.934 59.9829C177.028 59.9829 178.727 59.426 178.727 58.739C178.727 58.052 177.028 57.4951 174.934 57.4951C172.839 57.4951 171.141 58.052 171.141 58.739C171.141 59.426 172.839 59.9829 174.934 59.9829Z" fill="#FCD005"/>
<path d="M174.935 64.3835C173.533 64.3835 172.217 64.1917 171.326 63.8557C171.202 63.8099 171.141 63.6725 171.187 63.5486C171.233 63.4247 171.371 63.3619 171.495 63.4094C172.333 63.7251 173.587 63.9066 174.935 63.9066C176.284 63.9066 177.509 63.7285 178.347 63.4196C178.471 63.3738 178.609 63.4366 178.653 63.5605C178.699 63.6843 178.636 63.8201 178.512 63.8659C177.623 64.1934 176.319 64.3818 174.935 64.3818V64.3835Z" fill="#DBDCDC"/>
<path d="M174.935 62.946C173.533 62.946 172.217 62.7542 171.326 62.4182C171.202 62.3724 171.141 62.235 171.187 62.1111C171.233 61.9872 171.371 61.9244 171.495 61.9719C172.334 62.2876 173.587 62.4692 174.935 62.4692C176.284 62.4692 177.508 62.291 178.347 61.9821C178.471 61.9363 178.609 61.9991 178.653 62.123C178.699 62.2468 178.636 62.3826 178.512 62.4284C177.623 62.7559 176.319 62.9443 174.935 62.9443V62.946Z" fill="#DBDCDC"/>
<path d="M174.946 26.0841C174.752 26.0841 174.595 25.928 174.595 25.7345V20.832C174.595 20.6385 174.752 20.4824 174.946 20.4824C175.139 20.4824 175.296 20.6385 175.296 20.832V25.7345C175.296 25.928 175.139 26.0841 174.946 26.0841Z" fill="#C8C9CA"/>
<path d="M179.903 27.9645C179.83 27.9645 179.757 27.9424 179.694 27.8949C179.539 27.7795 179.507 27.5606 179.622 27.4045L182.427 23.6508C182.543 23.4947 182.762 23.4641 182.919 23.5795C183.073 23.6949 183.106 23.9138 182.99 24.0699L180.185 27.8253C180.117 27.917 180.01 27.9662 179.905 27.9662L179.903 27.9645Z" fill="#C8C9CA"/>
<path d="M169.999 28.0117C169.892 28.0117 169.785 27.9625 169.717 27.8692L166.879 24.0255C166.764 23.8694 166.798 23.6505 166.954 23.5368C167.109 23.4214 167.33 23.4553 167.444 23.6115L170.281 27.4551C170.396 27.6112 170.362 27.8301 170.206 27.9438C170.143 27.9896 170.07 28.0117 169.999 28.0117Z" fill="#C8C9CA"/>
<path d="M160.744 68.856C160.927 68.8356 161.103 68.5573 161.176 68.4266C161.356 68.5573 161.533 68.6438 161.647 68.6235C161.866 68.5845 162.072 68.2451 162.165 68.0703C162.235 68.0872 162.301 68.0923 162.364 68.0805C162.678 68.0194 162.842 67.5425 162.915 67.2405C162.988 67.1641 163.017 67.0657 163.01 66.9503L163.256 66.7229C163.256 66.7229 165.291 68.2569 165.652 68.5098C166.012 68.7626 166.514 68.8661 166.66 68.6523C166.806 68.4368 166.685 68.2349 166.456 67.9668C166.226 67.6986 163.783 65.4247 163.2 64.7883C162.617 64.152 160.203 63.4172 159.744 63.2034C159.284 62.9895 157.898 61.0991 157.898 61.0991L155.581 63.0218L157.306 64.9241C157.306 64.9241 157.368 65.9796 157.9 66.6245C158.298 67.1064 159.345 67.6613 159.685 67.8344C159.688 67.8768 159.695 67.9158 159.705 67.9532C159.795 68.2552 160.502 68.8797 160.742 68.8543L160.744 68.856Z" fill="#F8C9A4"/>
<path d="M162.687 67.5904C162.287 67.5904 161.901 67.117 161.76 66.9422C161.726 66.8998 161.431 66.5808 161.138 66.2651C160.521 66.4246 159.406 66.3771 158.751 65.2147C158.687 65.0993 158.728 64.9551 158.842 64.8906C158.957 64.8278 159.102 64.8668 159.166 64.9822C159.856 66.2074 161.077 65.7883 161.128 65.7696C161.218 65.7374 161.318 65.7611 161.385 65.8307C161.499 65.9529 162.065 66.5638 162.129 66.6418C162.488 67.0831 162.668 67.1221 162.692 67.1119C162.758 67.0797 162.772 67.0457 162.774 66.9948C162.775 66.9337 162.758 66.8183 162.658 66.6198C162.437 66.1837 162 65.3454 161.815 64.9924C161.754 64.8753 161.799 64.7327 161.915 64.6717C162.032 64.6106 162.175 64.6564 162.236 64.7718C162.422 65.1247 162.862 65.9664 163.083 66.406C163.202 66.6418 163.256 66.8421 163.25 67.0152C163.239 67.246 163.117 67.4309 162.906 67.5361C162.833 67.5735 162.76 67.5887 162.685 67.5887L162.687 67.5904Z" fill="#F8C9A4"/>
<path d="M146.948 40.6814C147.31 41.3279 150.977 52.8385 152.577 54.4676C155.583 57.5289 159.641 62.0072 159.641 62.0072L156.368 65.3893C156.368 65.3893 150.493 59.7468 148.925 57.8632C147.564 56.2273 145.021 52.5924 143.89 50.9582L143.633 43.5645L146.948 40.6797V40.6814Z" fill="#373764"/>
<path d="M201.668 134.83C201.62 133.699 202.016 130.876 202.016 130.876L199.023 130.543L198.647 133.917L197.603 134.368L197.19 135.32L199.215 135.897L201.444 135.546L201.668 134.83Z" fill="#F8C9A4"/>
<path d="M193.489 139.162C193.285 137.85 193.644 134.563 193.644 134.563L190.12 134.402L189.897 138.324L188.581 139.041L188.452 140.214L192.173 140.521L193.559 139.615L193.489 139.162Z" fill="#F8C9A4"/>
<path d="M198.645 133.771C198.645 133.771 197.902 133.981 197.202 134.107C196.51 134.23 196.129 133.857 194.984 133.832C193.768 133.804 193.873 135.585 193.873 135.585C194.518 136.733 196.06 137.097 197.443 137.36C198.611 137.58 198.661 137.843 199.949 138.074C201.236 138.305 202.086 137.75 202.086 137.75C202.443 135.364 201.659 134.831 201.659 134.831C201.659 134.831 200.236 135.498 197.601 135.143C197.601 135.143 198.358 134.738 198.411 134.341C198.445 134.076 198.644 133.918 198.644 133.918V133.772L198.645 133.771Z" fill="#C8C9CA"/>
<path d="M197.144 135.383C197.277 135.383 197.391 135.281 197.403 135.147C197.415 135.004 197.309 134.879 197.166 134.867C196.029 134.768 194.917 134.453 194.878 134.218C194.854 134.078 194.722 133.983 194.581 134.005C194.44 134.028 194.344 134.161 194.366 134.302C194.494 135.072 196.335 135.313 197.12 135.381C197.127 135.381 197.136 135.381 197.143 135.381L197.144 135.383Z" fill="white"/>
<path d="M203.237 122.701L202.588 132.35C202.588 132.35 200.194 132.783 198.026 131.836L198.599 120.692L203.237 122.701Z" fill="#373764"/>
<path d="M220.144 144.404C220.144 144.869 220.521 145.245 220.987 145.245C221.453 145.245 221.83 144.869 221.83 144.404C221.83 143.939 221.453 143.562 220.987 143.562C220.521 143.562 220.144 143.939 220.144 144.404Z" fill="#D2D2D3"/>
<path d="M202.396 147.932C202.396 148.397 202.773 148.773 203.239 148.773C203.705 148.773 204.082 148.397 204.082 147.932C204.082 147.467 203.705 147.09 203.239 147.09C202.773 147.09 202.396 147.467 202.396 147.932Z" fill="#D2D2D3"/>
<path d="M201.712 141.609C201.712 142.074 202.09 142.45 202.555 142.45C203.021 142.45 203.399 142.074 203.399 141.609C203.399 141.144 203.021 140.767 202.555 140.767C202.09 140.767 201.712 141.144 201.712 141.609Z" fill="#D2D2D3"/>
<path d="M213.029 149.427C213.029 149.892 213.406 150.268 213.872 150.268C214.338 150.268 214.715 149.892 214.715 149.427C214.715 148.962 214.338 148.585 213.872 148.585C213.406 148.585 213.029 148.962 213.029 149.427Z" fill="#D2D2D3"/>
<path d="M209.889 141.437L201.386 141.026V140.753C201.386 140.17 201.86 139.698 202.443 139.698H210.632L209.889 141.437Z" fill="#4887FA"/>
<path d="M210.307 140.137L202.768 146.596C202.416 146.898 202.464 147.455 202.861 147.692C203.103 147.836 203.409 147.818 203.63 147.645L211.266 141.666L210.307 140.139V140.137Z" fill="#4887FA"/>
<path d="M212.953 140.22L214.501 138.333C214.782 137.991 214.613 137.473 214.185 137.363C213.99 137.312 213.78 137.363 213.629 137.495L211.139 139.696L212.954 140.22H212.953Z" fill="#4887FA"/>
<path d="M210.307 140.755V130.19H212.562V140.755C212.562 140.755 212.118 141.017 211.434 141.017C210.751 141.017 210.307 140.755 210.307 140.755Z" fill="#4887FA"/>
<path d="M202.083 120.667C202.083 120.667 193.063 124.777 196.614 127.013L207.195 133.676C207.195 133.676 209.859 135.642 212.577 133.445L224.56 126.538C224.56 126.538 212.874 118.854 209.731 118.533C206.588 118.213 203.948 119.964 202.083 120.667Z" fill="#4887FA"/>
<path d="M211.797 139.698L221.447 142.53C221.898 142.662 222.207 143.075 222.207 143.543V144.258L212.386 141.632L211.797 139.698Z" fill="#4887FA"/>
<path d="M212.896 140.356L214.416 148.023C214.501 148.451 214.202 148.86 213.768 148.909C213.415 148.95 213.082 148.734 212.973 148.395L210.545 140.767L212.896 140.358V140.356Z" fill="#4887FA"/>
<path d="M189.887 138.152C189.887 138.152 189.035 138.454 188.226 138.654C187.427 138.853 186.954 138.444 185.613 138.501C184.192 138.563 184.45 140.635 184.45 140.635C185.292 141.928 187.119 142.236 188.756 142.437C190.139 142.606 190.217 142.908 191.738 143.082C193.26 143.253 194.21 142.54 194.21 142.54C194.445 139.727 193.489 139.162 193.489 139.162C193.489 139.162 191.878 140.047 188.773 139.834C188.773 139.834 189.627 139.301 189.657 138.834C189.678 138.522 189.899 138.323 189.899 138.323L189.889 138.152H189.887Z" fill="#C8C9CA"/>
<path d="M188.236 140.107C188.377 140.107 188.491 139.995 188.495 139.854C188.498 139.712 188.384 139.593 188.241 139.589C186.839 139.559 185.547 139.27 185.477 138.972C185.445 138.833 185.305 138.746 185.166 138.778C185.027 138.81 184.94 138.95 184.972 139.089C185.178 139.973 187.517 140.092 188.229 140.107H188.235H188.236Z" fill="white"/>
<path d="M219.521 114.223C219.521 114.223 216.752 113.369 214.289 113.028C211.825 112.687 210.005 114.053 210.005 114.053C210.005 114.053 205.648 111.231 202.407 110.585C199.109 109.926 198.868 112.928 198.868 112.928L198.576 115.572C197.676 115.177 196.753 114.781 195.915 114.442C192.712 113.149 190.55 114.092 189.928 115.694C189.307 117.294 189.119 134.95 189.119 134.95C191.747 136.745 194.603 135.055 194.603 135.055L195.06 122.3C195.06 122.3 205.068 127.792 207.871 128.315C213.345 129.334 218.07 124.983 219.115 122.508C220.161 120.032 219.523 114.226 219.523 114.226L219.521 114.223Z" fill="#373764"/>
<path d="M206.17 80.9996C206.168 80.9894 206.166 80.9775 206.166 80.9673C206.158 80.7196 206.34 80.2393 207.091 80.1986C207.924 80.1545 208.4 80.5074 208.55 80.7247C208.674 80.9045 208.672 81.4221 208.482 81.7937C208.352 82.0466 208.087 82.3487 207.548 82.3622C207.509 82.3622 207.47 82.3622 207.431 82.3605C206.78 82.3232 206.323 81.8345 206.17 80.9996ZM207.115 80.6483C206.685 80.6721 206.627 80.8723 206.62 80.9419C206.708 81.3967 206.938 81.9227 207.536 81.9091C207.761 81.9041 207.924 81.8226 208.033 81.6631C208.201 81.417 208.193 81.0641 208.165 80.969C208.077 80.8587 207.747 80.6161 207.113 80.65L207.115 80.6483Z" fill="#416792"/>
<path d="M214.552 85.1045C214.552 85.1045 214.319 88.3984 214.794 90.1445L211.239 91.3138L209.51 89.7203C209.51 89.7203 209.819 86.8728 210.049 84.8008L214.552 85.1045Z" fill="#F8C9A4"/>
<path d="M211.465 85.7989C210.943 86.3284 209.349 87.0377 208.64 86.7916C207.902 86.5354 207.32 85.0387 207.207 83.9492C207.123 83.1449 207.183 80.6877 207.241 80.2227C207.298 79.7577 207.65 75.3592 212.05 75.5153C216.574 75.6748 217.585 78.6021 217.371 80.5129C217.208 81.9723 215.873 83.8983 212.473 84.6026C212.473 84.6026 211.97 85.2864 211.463 85.7989H211.465Z" fill="#F8C9A4"/>
<path d="M211.285 82.6611C209.859 80.4737 208.871 79.1993 208.286 78.5069C207.802 77.935 207.802 77.0967 208.286 76.5265C208.516 76.2567 208.823 75.9886 209.23 75.7748C210.069 75.3336 210.622 75.1062 211.618 75.2589C211.618 75.2589 214.511 74.9874 216.133 76.2177C217.498 77.2545 218.318 78.4628 217.913 81.2407C217.5 84.0831 215.462 85.0012 215.214 85.6681C214.93 86.43 214.736 86.9985 214.736 86.9985C214.736 86.9985 213.152 87.0104 211.938 86.8254C211.938 86.8254 212.03 85.4763 211.778 84.0645C211.608 83.1142 211.287 82.6577 211.287 82.6577L211.285 82.6611Z" fill="#416792"/>
<path d="M211.429 83.8454C212.548 83.3176 212.327 82.0788 211.938 81.8022C211.387 81.4136 210.94 81.9923 210.94 81.9923L210.607 82.2909L211.188 83.9726L211.429 83.8454Z" fill="#F8C9A4"/>
<path d="M210.032 81.4903C210.153 81.4971 210.26 81.4072 210.27 81.285C210.282 81.1611 210.19 81.0508 210.066 81.0389L206.804 80.7335C206.681 80.7216 206.569 80.8132 206.557 80.9371C206.545 81.061 206.637 81.1713 206.761 81.1832L210.023 81.4886C210.023 81.4886 210.029 81.4886 210.032 81.4886V81.4903Z" fill="#416792"/>
<path d="M189.154 76.4313L193.367 89.0924C193.457 89.3656 193.646 89.5964 193.896 89.7406L202.271 94.5719C202.664 94.7976 202.664 95.3644 202.271 95.5901L186.718 104.56C186.444 104.718 186.108 104.718 185.834 104.56L177.008 99.4642C176.763 99.3234 176.578 99.0977 176.484 98.8313L172.045 86.0378C171.906 85.6339 172.074 85.1893 172.448 84.9806L188.306 76.1055C188.629 75.9256 189.037 76.0817 189.153 76.433L189.154 76.4313Z" fill="#DBDCDC"/>
<path d="M188.289 77.6157L192.318 89.2688L177.382 97.5653L173.22 85.8358L188.289 77.6157Z" fill="white"/>
<path d="M195.264 97.4708L191.645 99.5139L189.372 98.2055L193.003 96.1675L195.264 97.4708Z" fill="white"/>
<path d="M194.111 93.7762C194.246 93.6167 194.392 93.4453 194.453 93.3774C194.579 93.24 195.429 92.9328 195.716 92.9447C196.004 92.9565 197.391 93.2637 197.676 93.3876C197.96 93.5115 200.027 95.2424 200.027 95.2424L202.659 96.3793L201.488 98.3631C201.488 98.3631 199.172 97.0208 198.914 96.9461C198.654 96.8715 197.758 97.0123 197.17 97.0259C196.582 97.0395 196.157 96.6373 195.658 96.3759C195.113 96.0892 194.654 95.7837 194.657 95.5767C194.662 95.3136 194.88 95.2458 195.31 95.3696C195.73 95.4901 196.221 95.5241 196.221 95.5241C196.221 95.5241 195.786 94.6807 195.638 94.5873C195.49 94.494 194.564 94.3888 194.399 94.4499C194.234 94.5093 193.496 94.8453 193.384 94.5178C193.275 94.2004 193.906 93.9103 194.108 93.7779L194.111 93.7762Z" fill="#F8C9A4"/>
<path d="M206.331 96.965L201.063 95.1934C201.063 95.1934 199.344 96.4237 198.948 98.085L204.118 100.49L206.331 96.965Z" fill="#373764"/>
<path d="M184.715 101.347C184.955 101.277 186.281 101.435 186.281 101.435C186.281 101.435 185.501 100.812 185.416 100.814C185.331 100.814 185.003 101.009 184.84 101.087C184.676 101.165 184.185 101.399 184.039 101.082C183.893 100.765 184.313 100.612 184.313 100.612C184.313 100.612 184.338 100.597 184.382 100.573C183.973 100.496 184.034 100.132 184.457 99.9568C184.683 99.8635 184.925 99.7532 185.174 99.6565C185.297 99.1661 186.3 99.1372 186.3 99.1372C186.3 99.1372 187.39 99.312 188.08 99.4562C188.726 99.592 190.446 102.297 190.446 102.297L192.887 103.352L191.447 105.375L188.597 103.865C188.597 103.865 188.525 103.87 187.769 103.733C187.012 103.595 185.809 102.287 185.809 102.287C185.703 102.244 184.795 102.015 184.384 102.109C183.971 102.2 183.777 101.919 183.787 101.786C183.797 101.652 184.476 101.418 184.715 101.348V101.347Z" fill="#F8C9A4"/>
<path d="M200.186 104.073L192.252 102.234C192.252 102.234 190.237 104.009 189.896 105.592C189.896 105.592 197.899 109.069 200.332 109.465C200.804 109.541 201.954 108.871 202.986 108.148C202.986 108.148 202.129 116.468 202.768 116.918C203.407 117.368 204.25 117.02 205.134 117.544C206.683 118.46 209.525 121.944 212.721 121.822C215.917 121.7 220.494 118.527 220.558 116.768C220.623 115.01 219.931 110.468 220.043 108.665C220.157 106.862 221.023 101.545 220.921 97.871C220.839 94.9149 220.249 92.0369 219.725 91.5057C219.197 90.9695 215.797 89.69 215.797 89.69L215.188 88.0982C215.188 88.0982 211.788 87.9896 209.427 89.0841C209.002 89.281 208.463 90.7217 208.104 90.9983C208.104 90.9983 203.751 92.8955 202.919 94.4958C202.324 95.6446 201.061 100.836 200.184 104.073H200.186Z" fill="#373764"/>
<path d="M212.17 134.456C211.691 134.738 211.076 134.49 210.928 133.956C210.448 132.231 209.569 128.753 209.542 126.346C209.512 123.609 211.893 111.354 212.723 107.172C212.9 106.283 213.464 105.521 214.265 105.094L225.957 98.8368C226.745 98.416 227.668 99.0965 227.494 99.9704C226.556 104.73 224.436 115.801 224.465 118.384C224.492 120.807 225.199 124.001 225.578 125.544C225.713 126.087 225.473 126.654 224.988 126.937L212.17 134.455V134.456Z" fill="#4887FA"/>
<path d="M149.956 96.7153L139.033 91.2273L151.657 83.854L162.66 89.3946L149.956 96.7153Z" fill="white"/>
<path d="M155.215 104.073L144.293 98.5852L156.917 91.2119L167.921 96.7508L155.215 104.073Z" fill="white"/>
<path d="M151.883 94.3903C151.802 94.3903 151.722 94.3478 151.678 94.2732C151.611 94.1595 151.649 94.0135 151.763 93.9473L156.796 91.0082C156.866 90.9675 156.951 90.9658 157.024 91.0014L158.022 91.5037C158.139 91.5631 158.187 91.7056 158.128 91.8227C158.068 91.9398 157.925 91.9873 157.808 91.9279L156.926 91.4833L152.002 94.358C151.965 94.3801 151.923 94.3903 151.882 94.3903H151.883Z" fill="#EEEEEF"/>
<path d="M142.333 130.833C142.333 130.833 142.615 137.553 142.476 138.311C142.312 139.192 140.879 141.332 141.432 142.457C142.086 143.792 143.649 142.808 145.33 143.577C146.772 144.237 148.064 143.765 148.898 143.392C149.758 143.007 150.428 142.554 150.245 141.999C150.136 141.67 149.864 141.374 148.829 141.359C148.086 141.347 147.225 141.162 146.948 140.972C146.459 140.634 145.617 139.752 145.44 139.263C145.44 139.263 145.831 133.051 146.248 130.724L142.333 130.836V130.833Z" fill="#F8C9A4"/>
<path d="M149.588 141.268C148.715 141.049 147.645 141.217 147.645 141.217C147.956 141.381 148.478 141.732 147.831 142.004C147.183 142.274 145.677 141.853 144.487 141.12C143.297 140.387 141.773 139.776 141.773 139.776C140.787 141.308 141.185 142.481 141.185 142.481L141.122 143.256C141.112 143.384 141.161 143.511 141.26 143.594C141.416 143.728 141.695 143.937 142.098 144.135C142.285 144.227 142.496 144.259 142.7 144.224L143.722 144.045C143.863 144.022 143.972 143.91 143.994 143.769L144.045 143.445C144.908 143.479 145.4 143.83 146.663 144.017C148.108 144.232 149.881 143.114 150.279 142.579C150.676 142.045 150.462 141.483 149.588 141.266V141.268Z" fill="#416792"/>
<path d="M147.31 133.569C147.31 133.569 148.05 140.343 147.911 141.103C147.747 141.984 146.314 144.124 146.867 145.249C147.521 146.584 149.084 145.6 150.765 146.369C152.206 147.029 153.498 146.557 154.333 146.184C155.193 145.799 155.863 145.346 155.68 144.791C155.571 144.461 155.299 144.166 154.263 144.151C153.521 144.139 152.66 143.954 152.383 143.764C151.894 143.426 151.052 142.544 150.875 142.055C150.875 142.055 150.807 135.787 151.226 133.46L147.31 133.572V133.569Z" fill="#F8C9A4"/>
<path d="M155.023 144.058C154.15 143.839 153.08 144.007 153.08 144.007C153.391 144.171 153.913 144.523 153.266 144.794C152.618 145.064 151.112 144.643 149.922 143.91C148.732 143.177 147.208 142.566 147.208 142.566C146.222 144.098 146.62 145.271 146.62 145.271L146.557 146.046C146.547 146.174 146.596 146.301 146.695 146.384C146.851 146.518 147.13 146.727 147.533 146.925C147.72 147.017 147.931 147.049 148.135 147.014L149.157 146.835C149.298 146.812 149.407 146.7 149.429 146.559L149.48 146.235C150.343 146.269 150.835 146.62 152.098 146.807C153.543 147.022 155.316 145.904 155.714 145.369C156.111 144.835 155.897 144.273 155.023 144.056V144.058Z" fill="#416792"/>
<path d="M141.68 121.764V136.872C144.521 137.802 145.976 136.872 145.976 136.872C145.976 136.872 147.854 117.154 145.316 115.014C142.693 112.803 131.573 117.614 131.573 117.614L133.902 124.087L141.68 121.763V121.764Z" fill="#373764"/>
<path d="M145.68 97.0871L146.868 95.178C146.868 95.178 146.698 92.7395 147.054 92.081C147.302 91.6195 148.142 89.9259 148.606 88.8687C148.837 88.3426 148.988 87.9201 149.311 87.9845C149.616 88.0456 149.446 88.609 149.305 89.1673C149.157 89.7579 148.908 90.3637 148.83 90.866C148.83 90.866 150.478 91.4413 150.899 92.4425C151.314 93.4284 149.629 95.1831 149.378 95.6888C149.128 96.1962 147.916 98.5567 147.916 98.5567L145.678 97.0854L145.68 97.0871Z" fill="#F8C9A4"/>
<path d="M121.219 147.406C121.219 147.871 120.841 148.247 120.376 148.247C119.91 148.247 119.532 147.871 119.532 147.406C119.532 146.941 119.91 146.564 120.376 146.564C120.841 146.564 121.219 146.941 121.219 147.406Z" fill="#D2D2D3"/>
<path d="M138.122 151.774C138.588 151.774 138.965 151.397 138.965 150.932C138.965 150.467 138.588 150.09 138.122 150.09C137.656 150.09 137.279 150.467 137.279 150.932C137.279 151.397 137.656 151.774 138.122 151.774Z" fill="#D2D2D3"/>
<path d="M139.65 144.609C139.65 145.074 139.273 145.45 138.807 145.45C138.341 145.45 137.964 145.074 137.964 144.609C137.964 144.144 138.341 143.767 138.807 143.767C139.273 143.767 139.65 144.144 139.65 144.609Z" fill="#D2D2D3"/>
<path d="M128.333 152.429C128.333 152.894 127.956 153.27 127.49 153.27C127.024 153.27 126.647 152.894 126.647 152.429C126.647 151.964 127.024 151.587 127.49 151.587C127.956 151.587 128.333 151.964 128.333 152.429Z" fill="#D2D2D3"/>
<path d="M131.473 144.438L139.977 144.027V143.754C139.977 143.17 139.502 142.698 138.919 142.698H130.73L131.473 144.438Z" fill="#4887FA"/>
<path d="M131.055 143.138L138.594 149.596C138.946 149.898 138.899 150.455 138.501 150.693C138.26 150.837 137.954 150.818 137.733 150.645L130.096 144.667L131.055 143.139V143.138Z" fill="#4887FA"/>
<path d="M128.408 143.222L126.859 141.335C126.579 140.993 126.747 140.475 127.176 140.365C127.371 140.314 127.58 140.365 127.732 140.497L130.222 142.698L128.406 143.222H128.408Z" fill="#4887FA"/>
<path d="M131.055 143.757V133.192H128.801V143.757C128.801 143.757 129.244 144.019 129.928 144.019C130.611 144.019 131.055 143.757 131.055 143.757Z" fill="#4887FA"/>
<path d="M139.28 123.667C139.28 123.667 148.3 127.777 144.749 130.013L134.168 136.676C134.168 136.676 131.504 138.642 128.786 136.445L116.802 129.538C116.802 129.538 128.488 121.854 131.631 121.533C134.775 121.213 137.415 122.964 139.28 123.667Z" fill="#4887FA"/>
<path d="M129.566 142.698L119.915 145.53C119.464 145.663 119.155 146.075 119.155 146.544V147.258L128.976 144.633L129.566 142.698Z" fill="#4887FA"/>
<path d="M128.464 143.358L126.944 151.025C126.859 151.453 127.159 151.862 127.592 151.911C127.946 151.952 128.279 151.736 128.388 151.397L130.815 143.769L128.464 143.36V143.358Z" fill="#4887FA"/>
<path d="M126.579 86.5523C126.579 86.5523 126.839 89.8546 126.378 91.6075L129.953 92.7513L131.674 91.1392C131.674 91.1392 131.341 88.2866 131.094 86.2095L126.579 86.5506V86.5523Z" fill="#F8C9A4"/>
<path d="M129.68 87.2228C130.208 87.7488 131.813 88.448 132.522 88.1951C133.26 87.9321 133.831 86.4269 133.935 85.334C134.013 84.528 133.931 82.064 133.87 81.5973C133.809 81.1323 133.42 76.7219 129.008 76.9154C124.473 77.1122 123.485 79.9241 123.714 81.8383C123.89 83.3011 125.241 85.3544 128.656 86.0315C128.656 86.0315 129.166 86.712 129.678 87.2228H129.68Z" fill="#F8C9A4"/>
<path d="M129.834 84.0729C131.245 81.8669 132.226 80.5806 132.808 79.8831C133.289 79.3062 133.282 78.4662 132.791 77.8977C132.558 77.6278 132.248 77.3614 131.839 77.151C130.992 76.7149 130.436 76.4909 129.44 76.6538C129.44 76.6538 126.536 76.4043 124.92 77.6533C123.558 78.7054 122.747 79.9222 123.176 82.7052C123.614 85.551 123.266 86.5369 123.687 87.4143C124.604 89.3166 129.245 88.5529 130.458 88.1711C130.458 88.1711 129.547 87.2734 129.568 85.5527C129.579 84.5837 129.834 84.0729 129.834 84.0729Z" fill="#416792"/>
<path d="M129.909 85.2406C128.735 84.8401 128.814 83.5809 129.171 83.2619C129.676 82.8122 130.188 83.3383 130.188 83.3383L130.554 83.5979L130.164 85.339L129.909 85.2406Z" fill="#F8C9A4"/>
<path d="M149.259 117.04C146.54 116.222 137.066 121.114 137.066 121.114L131.573 117.617L122.149 117.883C122.149 117.883 121.814 122.837 122.026 126.09C122.239 129.343 127.895 132.425 132.248 131.634C136.299 130.899 143.592 126.292 146.471 124.393C146.508 126.935 146.799 138.098 146.799 138.098C149.678 138.914 151.537 137.772 151.537 137.772C151.537 137.772 151.831 131.62 151.878 126.339C151.924 121.058 151.547 117.727 149.257 117.04H149.259Z" fill="#373764"/>
<path d="M145.724 95.3646L142.661 101.713C142.176 101.055 138.97 96.2963 137.964 95.2747C136.862 94.1581 134.144 93.0941 133.241 92.3474C132.949 91.7807 132.571 91.3581 132.277 91.2054C129.846 89.9479 125.943 89.9869 125.943 89.9869L125.586 90.8083C124.692 91.4175 122.302 93.0585 121.892 93.4386C121.391 93.9036 120.947 96.0299 120.952 98.6296C120.957 102.003 121.005 108.313 121.037 109.97C121.068 111.628 119.75 120.755 119.75 120.755C119.75 120.755 124.321 123.816 128.729 124.576C133.294 125.364 137.466 124.856 137.954 123.368C138.443 121.88 137.263 106.12 137.263 106.12C139.305 107.466 143.062 108.856 143.536 108.788C145.976 108.44 149.616 97.0956 149.616 97.0956C147.865 95.3952 145.724 95.3646 145.724 95.3646Z" fill="#373764"/>
<path d="M129.192 137.456C129.671 137.738 130.287 137.49 130.435 136.956C130.914 135.231 131.793 131.753 131.82 129.346C131.851 126.609 129.469 114.354 128.639 110.172C128.463 109.283 127.898 108.521 127.097 108.094L115.405 101.837C114.618 101.416 113.695 102.096 113.868 102.97C114.806 107.73 116.926 118.801 116.897 121.384C116.87 123.807 116.163 127.001 115.784 128.544C115.65 129.087 115.889 129.654 116.374 129.937L129.192 137.455V137.456Z" fill="#4887FA"/>
</g>
<defs>
<clipPath id="clip0_250_41">
<rect width="170" height="140" fill="white" transform="translate(86 17.0938)"/>
</clipPath>
</defs>
</svg>
