<svg width="252" height="63" viewBox="0 0 252 63" fill="none" xmlns="http://www.w3.org/2000/svg">
<rect x="1" y="1" width="250" height="61" rx="5.75" fill="white"/>
<rect x="1" y="1" width="250" height="61" rx="5.75" stroke="#5C7591" stroke-width="2"/>
<g clip-path="url(#clip0_9_2272)">
<path d="M47.4582 26.5945C47.3321 26.5047 47.1836 26.4513 47.0292 26.4403C46.8747 26.4292 46.7201 26.4609 46.5824 26.5318C46.4448 26.6027 46.3293 26.7102 46.2486 26.8424C46.1679 26.9746 46.1252 27.1265 46.1251 27.2813V35.7188C46.1252 35.8737 46.1679 36.0256 46.2486 36.1578C46.3293 36.29 46.4448 36.3975 46.5824 36.4684C46.7201 36.5393 46.8747 36.571 47.0292 36.5599C47.1836 36.5489 47.3321 36.4955 47.4582 36.4057L53.3645 32.1869C53.4739 32.1089 53.563 32.0058 53.6245 31.8863C53.686 31.7669 53.7181 31.6345 53.7181 31.5001C53.7181 31.3657 53.686 31.2333 53.6245 31.1138C53.563 30.9944 53.4739 30.8913 53.3645 30.8133L47.4582 26.5945Z" fill="#0A294B"/>
<path d="M36 24.75C36 23.8549 36.3556 22.9965 36.9885 22.3635C37.6214 21.7306 38.4799 21.375 39.375 21.375H59.625C60.5201 21.375 61.3785 21.7306 62.0115 22.3635C62.6444 22.9965 63 23.8549 63 24.75V38.25C63 39.1451 62.6444 40.0036 62.0115 40.6365C61.3785 41.2695 60.5201 41.625 59.625 41.625H39.375C38.4799 41.625 37.6214 41.2695 36.9885 40.6365C36.3556 40.0036 36 39.1451 36 38.25V24.75ZM61.3125 24.75C61.3125 24.3025 61.1347 23.8733 60.8182 23.5568C60.5018 23.2403 60.0726 23.0625 59.625 23.0625H39.375C38.9274 23.0625 38.4982 23.2403 38.1818 23.5568C37.8653 23.8733 37.6875 24.3025 37.6875 24.75V38.25C37.6875 38.6976 37.8653 39.1268 38.1818 39.4433C38.4982 39.7597 38.9274 39.9375 39.375 39.9375H59.625C60.0726 39.9375 60.5018 39.7597 60.8182 39.4433C61.1347 39.1268 61.3125 38.6976 61.3125 38.25V24.75Z" fill="#0A294B"/>
</g>
<path d="M86.256 34.202H82.764V36.704H86.256V34.202ZM80.37 39.674V31.916H88.776V39.602H86.256V38.99H82.764V39.674H80.37ZM76.014 30.35L77.238 30.296C77.094 29.972 76.95 29.63 76.806 29.324C76.536 29.684 76.266 30.026 76.014 30.35ZM79.758 23.402H89.136C89.136 23.402 89.118 24.014 89.1 24.302C89.028 28.028 88.92 29.666 88.452 30.26C88.038 30.8 87.588 30.98 86.976 31.07C86.472 31.16 85.608 31.16 84.708 31.16C84.654 30.404 84.366 29.396 83.952 28.748C84.672 28.82 85.374 28.82 85.734 28.82C85.986 28.82 86.166 28.784 86.328 28.622C86.526 28.388 86.598 27.596 86.67 25.796H84.51C84.15 28.244 83.286 30.296 80.514 31.646C80.226 31.034 79.56 30.134 79.02 29.684C79.452 30.638 79.812 31.628 79.938 32.366L78.12 33.176C78.084 32.924 78.03 32.654 77.94 32.366L77.346 32.402V33.698L78.876 33.194C79.29 34.238 79.758 35.57 79.974 36.47L78.066 37.154C77.922 36.47 77.634 35.516 77.346 34.616V39.71H75.078V34.454C74.898 35.948 74.556 37.46 74.142 38.45C73.692 38.162 72.72 37.712 72.18 37.514C72.648 36.47 72.9 34.85 73.008 33.356L75.078 33.716V32.564L72.576 32.726L72.36 30.476L73.728 30.422C73.944 30.152 74.16 29.864 74.376 29.558C73.854 28.766 73.062 27.848 72.36 27.164L73.584 25.364L73.908 25.67C74.376 24.68 74.826 23.546 75.096 22.628L77.346 23.456C76.68 24.716 75.96 26.102 75.33 27.11C75.456 27.254 75.582 27.416 75.69 27.56C76.266 26.606 76.788 25.652 77.184 24.806L79.29 25.76C78.606 26.804 77.814 27.956 77.022 29.036L78.408 28.46C78.624 28.838 78.822 29.252 79.02 29.666C81.072 28.748 81.684 27.38 81.936 25.796H79.758V23.402ZM97.398 22.538H100.242C102.114 25.634 104.814 27.848 107.802 28.892C107.136 29.594 106.56 30.494 106.074 31.304C105.156 30.854 104.238 30.296 103.356 29.666V39.71H100.62V29.342H102.906C101.25 28.082 99.792 26.606 98.928 25.22C98.046 26.66 96.606 28.154 94.896 29.45H97.236V31.52C97.236 34.076 96.876 37.442 93.384 39.71C92.916 39.134 91.872 38.252 91.17 37.838C94.212 35.966 94.536 33.446 94.536 31.448V29.72C93.708 30.314 92.808 30.872 91.89 31.34C91.566 30.692 90.828 29.702 90.27 29.162C93.474 27.704 96.192 24.842 97.398 22.538ZM114.318 36.002V36.614L117.18 36.398C117.27 36.272 117.36 36.146 117.45 36.002H114.318ZM111.06 32.132H111.96V31.592H111.06V32.132ZM115.2 32.132V31.592H114.318V32.132H115.2ZM111.06 29.576V30.116H111.96V29.576H111.06ZM115.2 29.576H114.318V30.116H115.2V29.576ZM121.608 26.606H125.172C125.172 26.606 125.154 27.416 125.154 27.722C125.01 35.012 124.884 37.712 124.308 38.558C123.858 39.242 123.408 39.458 122.778 39.602C122.202 39.728 121.374 39.728 120.51 39.71C120.456 38.99 120.168 37.928 119.754 37.226C120.474 37.298 121.086 37.298 121.446 37.298C121.716 37.298 121.878 37.226 122.058 36.974C122.4 36.506 122.544 34.4 122.634 29H121.536C121.284 33.86 120.474 37.478 117.522 39.872C117.288 39.458 116.82 38.9 116.37 38.45C113.634 38.72 110.826 38.972 108.72 39.152L108.432 36.992C109.422 36.938 110.628 36.866 111.96 36.776V36.002H108.936V34.184H111.96V33.716H109.008V27.992H111.96V27.542H108.576V25.688H111.96V25.256C110.988 25.31 110.016 25.346 109.098 25.364C109.026 24.842 108.774 24.032 108.54 23.528C111.24 23.402 114.282 23.096 116.334 22.664L117.432 24.59C116.496 24.788 115.434 24.932 114.318 25.058V25.688H117.576V27.542H114.318V27.992H117.342V33.716H114.318V34.184H117.45V36.002C118.584 34.202 118.944 31.898 119.07 29H117.648V26.606H119.124V22.952H121.626C121.626 24.23 121.626 25.454 121.608 26.606ZM140.094 36.218V26.912H142.632V39.71H140.094V38.684H129.924V39.71H127.386V26.912H129.924V36.218H140.094ZM137.052 30.35V29.306H136.062V30.35H137.052ZM137.052 33.374V32.312H136.062V33.374H137.052ZM132.858 32.312V33.374H133.83V32.312H132.858ZM132.858 29.306V30.35H133.83V29.306H132.858ZM126.828 23.636H143.208V26.066H136.26V27.2H139.284V35.48H130.734V27.2H133.614V26.066H126.828V23.636ZM152.802 35.552C152.802 36.182 153.432 36.398 154.206 36.398C155.07 36.398 155.412 35.93 155.412 34.94V34.814C155.016 34.706 154.62 34.652 154.206 34.652C153.36 34.652 152.802 34.976 152.802 35.552ZM158.112 23.78C158.058 24.122 158.022 24.59 158.004 24.986C157.986 25.328 157.968 25.922 157.95 26.678C158.868 26.57 159.75 26.444 160.56 26.264V28.982C159.75 29.09 158.868 29.198 157.932 29.252C157.968 30.908 158.058 32.186 158.112 33.266C159.642 33.896 160.758 34.832 161.568 35.588L160.092 37.874C159.426 37.244 158.778 36.704 158.166 36.236C157.932 37.928 156.816 38.972 154.458 38.972C151.92 38.972 150.246 37.892 150.246 35.858C150.246 33.842 151.902 32.546 154.422 32.546C154.728 32.546 155.034 32.564 155.322 32.582C155.268 31.628 155.214 30.53 155.196 29.396C154.854 29.414 154.512 29.414 154.188 29.414C153.108 29.414 152.028 29.378 150.966 29.306L150.948 26.714C151.992 26.822 153.072 26.876 154.17 26.876C154.512 26.876 154.836 26.876 155.178 26.858C155.16 26.012 155.16 25.346 155.142 25.022C155.142 24.752 155.07 24.158 154.998 23.78H158.112ZM149.382 24.014C149.22 24.41 148.968 25.526 148.896 25.85C148.68 26.786 148.05 30.98 148.05 32.654C148.05 32.708 148.05 32.996 148.068 33.068C148.284 32.546 148.518 32.204 148.752 31.664L150.066 32.726C149.526 34.346 148.986 36.164 148.77 37.208C148.716 37.46 148.662 37.874 148.662 38.054C148.662 38.252 148.662 38.576 148.68 38.864L146.214 39.044C145.836 37.82 145.476 35.714 145.476 33.266C145.476 30.512 145.98 27.128 146.178 25.796C146.25 25.256 146.358 24.428 146.376 23.762L149.382 24.014ZM165.744 24.662C167.094 24.806 168.786 24.878 170.73 24.878C172.53 24.878 174.726 24.77 176.148 24.626V27.542C174.87 27.65 172.494 27.758 170.748 27.758C168.822 27.758 167.238 27.668 165.744 27.56V24.662ZM167.706 32.492C167.562 33.104 167.436 33.626 167.436 34.202C167.436 35.21 168.372 35.984 170.802 35.984C173.196 35.984 175.482 35.714 177.21 35.264L177.228 38.36C175.5 38.738 173.412 38.954 170.91 38.954C166.536 38.954 164.484 37.478 164.484 34.886C164.484 33.788 164.718 32.888 164.844 32.24L167.706 32.492ZM188.442 23.51C188.226 24.23 188.118 24.878 187.956 25.526L187.902 25.796C189.882 25.688 192.204 25.418 194.364 24.968L194.418 27.56C192.69 27.83 189.81 28.19 187.344 28.316C187.146 29.18 186.93 30.044 186.714 30.818C188.118 30.188 189.396 29.936 190.854 29.936C193.788 29.936 195.876 31.52 195.876 33.95C195.876 38.144 191.934 39.656 185.904 39.008L185.13 36.182C188.964 36.848 192.906 36.506 192.906 34.022C192.906 33.104 192.078 32.276 190.512 32.276C188.478 32.276 186.732 33.032 185.724 34.364C185.544 34.598 185.418 34.814 185.256 35.12L182.682 34.22C183.51 32.6 184.23 30.314 184.698 28.37C183.618 28.334 182.628 28.298 181.782 28.208V25.508C182.88 25.688 184.14 25.832 185.202 25.868C185.238 25.688 185.256 25.526 185.274 25.382C185.382 24.518 185.4 24.032 185.364 23.384L188.442 23.51ZM203.994 23.294C205.794 23.852 209.772 24.518 211.338 24.698L210.69 27.38C208.8 27.128 204.732 26.264 203.31 25.904L203.994 23.294ZM204.408 27.092C204.156 27.974 203.85 29.882 203.76 30.854C205.326 29.846 207.018 29.396 208.746 29.396C212.13 29.396 213.966 31.502 213.966 33.716C213.966 37.046 211.5 39.764 203.58 39.08L202.734 36.218C207.99 36.992 210.888 35.858 210.888 33.662C210.888 32.636 209.916 31.88 208.476 31.88C206.64 31.88 204.876 32.564 203.814 33.842C203.454 34.274 203.256 34.562 203.076 34.958L200.574 34.346C200.934 32.51 201.348 29.126 201.474 26.696L204.408 27.092Z" fill="#0A294B"/>
<defs>
<clipPath id="clip0_9_2272">
<rect width="27" height="27" fill="white" transform="translate(36 18)"/>
</clipPath>
</defs>
</svg>
